<svg xmlns:xlink="http://www.w3.org/1999/xlink" class="icon icon-cart-empty" aria-hidden="true" focusable="false" xmlns="http://www.w3.org/2000/svg" width="44" height="44" viewBox="0 0 44 44" fill="none">
  <path fill-rule="evenodd" clip-rule="evenodd" d="M16.2154 11H12.0342L11.0153 26.0649C10.9536 26.953 11.0787 27.844 11.3826 28.6826C11.6865 29.5213 12.1628 30.2896 12.782 30.94C13.4012 31.5903 14.15 32.1088 14.9819 32.4632C15.8138 32.8176 16.7111 33.0003 17.6179 33H27.3829C28.2886 33.0002 29.1847 32.8178 30.0157 32.4642C30.8466 32.1106 31.5948 31.5933 32.2138 30.9444C32.8327 30.2955 33.3094 29.5287 33.6142 28.6916C33.9189 27.8545 34.0453 26.9649 33.9856 26.0779L32.9535 11H16.2154ZM16.2154 12.2987H13.2779L12.3385 26.1558C12.2895 26.8659 12.3898 27.5782 12.6329 28.2486C12.876 28.919 13.2569 29.5333 13.752 30.0532C14.247 30.5732 14.8456 30.9878 15.5106 31.2713C16.1756 31.5548 16.8929 31.7011 17.6179 31.7013H27.3829C28.1091 31.7029 28.8278 31.5579 29.4944 31.2752C30.161 30.9924 30.7612 30.5781 31.2576 30.058C31.7541 29.5378 32.1362 28.923 32.3801 28.2517C32.6241 27.5803 32.7247 26.8669 32.6756 26.1558L31.7229 12.2987H28.7855V13.1169C28.7855 13.927 28.6229 14.7292 28.3071 15.4776C27.9912 16.226 27.5283 16.9061 26.9447 17.4789C26.361 18.0517 25.6682 18.5061 24.9056 18.8161C24.1431 19.1262 23.3258 19.2857 22.5004 19.2857C21.6751 19.2857 20.8578 19.1262 20.0953 18.8161C19.3327 18.5061 18.6399 18.0517 18.0562 17.4789C17.4726 16.9061 17.0097 16.226 16.6938 15.4776C16.3779 14.7292 16.2154 13.927 16.2154 13.1169V12.2987ZM27.4623 12.2987H17.5386V13.1169C17.5386 14.4085 18.0613 15.6473 18.9919 16.5606C19.9224 17.4739 21.1845 17.987 22.5004 17.987C23.8164 17.987 25.0785 17.4739 26.009 16.5606C26.9396 15.6473 27.4623 14.4085 27.4623 13.1169V12.2987Z" fill="#C6C6C6"></path>
</svg>