<svg width="25" height="24" viewBox="0 0 25 24" fill="none" xmlns="http://www.w3.org/2000/svg">
<g clip-path="url(#clip0_902_8502)">
<path d="M14.0312 7.17627C14.1545 7.17627 14.2755 7.12611 14.3627 7.03893C14.4498 6.95174 14.5 6.8308 14.5 6.70752C14.5 6.58424 14.4498 6.4633 14.3627 6.37611C14.2755 6.28893 14.1545 6.23877 14.0312 6.23877C13.908 6.23877 13.787 6.28893 13.6998 6.37611C13.6127 6.4633 13.5625 6.58424 13.5625 6.70752C13.5625 6.8308 13.6127 6.95174 13.6998 7.03893C13.787 7.12611 13.908 7.17627 14.0312 7.17627Z" fill="white"/>
<path d="M10.8086 8.88867C10.8086 9.01195 10.8588 9.13289 10.9459 9.22008C11.0331 9.30727 11.1541 9.35742 11.2773 9.35742C11.4006 9.35742 11.5216 9.30727 11.6088 9.22008C11.6959 9.13289 11.7461 9.01195 11.7461 8.88867C11.7461 8.76492 11.6959 8.64445 11.6088 8.5568C11.5216 8.46961 11.4006 8.41992 11.2773 8.41992C11.1535 8.41992 11.0331 8.46961 10.9459 8.5568C10.8588 8.64445 10.8086 8.76492 10.8086 8.88867Z" fill="white"/>
<path d="M10.3888 5.51869C10.3016 5.60588 10.252 5.72682 10.252 5.8501C10.252 5.97338 10.3016 6.09432 10.3888 6.1815C10.4765 6.26869 10.5974 6.31885 10.7202 6.31885C10.844 6.31885 10.9645 6.26869 11.0516 6.1815C11.1392 6.09432 11.1894 5.97338 11.1894 5.8501C11.1894 5.72682 11.1392 5.60588 11.0516 5.51869C10.9649 5.4315 10.8439 5.38135 10.7202 5.38135C10.597 5.38135 10.4765 5.4315 10.3888 5.51869Z" fill="white"/>
<path d="M7.84488 7.90932C7.75774 7.9965 7.70801 8.11697 7.70801 8.24072C7.70801 8.364 7.75774 8.48494 7.84488 8.57213C7.93207 8.65932 8.05301 8.70947 8.17629 8.70947C8.30004 8.70947 8.42051 8.65932 8.5077 8.57213C8.59535 8.48494 8.64546 8.364 8.64546 8.24072C8.64546 8.11744 8.59535 7.9965 8.5077 7.90932C8.42051 7.82166 8.29999 7.77197 8.17629 7.77197C8.05301 7.77197 7.93207 7.82166 7.84488 7.90932Z" fill="white"/>
<path d="M24.3809 13.3238C24.2389 13.1647 24.0073 13.1215 23.8174 13.2187C22.0308 14.1335 20.5412 15.3345 19.4938 16.7011C19.8666 15.6964 20.3544 14.7109 20.957 13.7493L21.897 12.249C22.0101 12.0685 21.9873 11.8343 21.8413 11.679C21.6954 11.5238 21.463 11.4865 21.2759 11.5883C21.0103 11.7328 20.7505 11.8832 20.4969 12.0392C20.7659 10.9292 20.801 9.77194 20.5944 8.63016C20.2956 6.97842 19.508 5.47575 18.3169 4.28456C17.3176 3.28528 16.0741 2.55727 14.7209 2.17912C14.7086 2.17569 14.6963 2.17278 14.6839 2.17038C14.4466 2.12419 14.2095 2.26742 14.1433 2.50444C14.0736 2.75377 14.2193 3.01237 14.4686 3.08203C15.6669 3.41686 16.7684 4.06191 17.654 4.94742C19.7594 7.05295 20.3709 10.1639 19.2295 12.9038C18.0299 13.8106 17.0153 14.8529 16.2389 15.9848C16.2094 16.0279 16.1804 16.0712 16.1515 16.1145C16.3871 15.3599 16.6699 14.6209 16.9992 13.9055L17.6719 12.4438C17.7614 12.2493 17.7078 12.019 17.5417 11.884C17.3756 11.7491 17.1393 11.7437 16.9671 11.8711C15.4456 12.9978 14.1911 14.487 13.3392 16.1778C12.994 16.863 12.7159 17.5822 12.5058 18.3207C12.2957 17.5822 12.0177 16.8631 11.6724 16.1778C10.8205 14.487 9.56601 12.9978 8.04449 11.8711C7.87242 11.7437 7.63598 11.749 7.4699 11.884C7.30382 12.019 7.2502 12.2493 7.33973 12.4438L8.01248 13.9055C8.34168 14.6209 8.62452 15.3599 8.86012 16.1145C8.83124 16.0712 8.80232 16.0279 8.77274 15.9848C7.99256 14.8475 6.97204 13.8006 5.76482 12.8908C4.63115 10.1543 5.2447 7.0485 7.34582 4.94742C8.23392 4.05933 9.3389 3.4133 10.5412 3.07917C10.7907 3.00984 10.9367 2.75147 10.8674 2.50205C10.8021 2.26721 10.5692 2.12408 10.3341 2.1659C10.3195 2.1685 10.3048 2.17183 10.2902 2.17589C8.93249 2.55319 7.6851 3.28233 6.68292 4.28447C5.49365 5.47374 4.70657 6.97388 4.40666 8.6227C4.1992 9.76369 4.23318 10.9207 4.50084 12.0305C4.25165 11.8776 3.99656 11.73 3.73579 11.5882C3.54866 11.4864 3.31631 11.5237 3.17038 11.6789C3.02442 11.8342 3.00149 12.0683 3.1147 12.2489L4.05473 13.7491C4.66316 14.7202 5.15456 15.7155 5.52871 16.7305C4.48012 15.3516 2.98185 14.14 1.18242 13.2185C0.992571 13.1213 0.761056 13.1645 0.618978 13.3237C0.476993 13.4829 0.460306 13.7179 0.578524 13.8954L1.40774 15.1415C2.68438 17.0603 3.37499 19.092 3.46452 21.1876H2.70295C2.4441 21.1876 2.2342 21.3975 2.2342 21.6564C2.2342 21.9153 2.4441 22.1251 2.70295 22.1251H22.2967C22.5555 22.1251 22.7654 21.9153 22.7654 21.6564C22.7654 21.3975 22.5555 21.1876 22.2967 21.1876H21.5351C21.6247 19.0921 22.3153 17.0604 23.5921 15.1417L24.4213 13.8956C24.5395 13.718 24.5228 13.483 24.3809 13.3238ZM20.0178 13.4868C18.5597 15.8972 17.7522 18.5447 17.6665 21.1876H15.3592C15.5243 18.2903 17.2111 15.528 20.0178 13.4868ZM15.8831 14.1156C14.948 16.3469 14.4292 18.77 14.3697 21.1876H12.9849C13.0962 18.558 14.1382 16.0492 15.8831 14.1156ZM12.0266 21.1876H10.6419C10.5823 18.77 10.0635 16.3469 9.12848 14.1155C10.8733 16.0492 11.9154 18.558 12.0266 21.1876ZM9.65235 21.1876H7.34498C7.25934 18.5447 6.45187 15.8972 4.99382 13.4868C7.80042 15.528 9.48731 18.2903 9.65235 21.1876ZM2.50321 15.1173C4.78152 16.7593 6.15777 18.9218 6.32545 21.1876H4.4024C4.31709 19.1086 3.66665 17.0293 2.50321 15.1173ZM20.5972 21.1876H18.6742C18.8419 18.9218 20.2182 16.7592 22.4965 15.1173C21.333 17.0294 20.6826 19.1086 20.5972 21.1876Z" fill="white"/>
<path d="M14.1433 2.50444C14.2095 2.26742 14.4466 2.12419 14.6839 2.17038C13.0273 1.78005 12.0627 1.77456 10.3341 2.1659C10.5692 2.12408 10.8021 2.26721 10.8674 2.50205C10.9367 2.75147 10.7907 3.00984 10.5412 3.07917C12.1109 2.72841 12.9756 2.72887 14.4686 3.08203C14.2193 3.01237 14.0736 2.75377 14.1433 2.50444Z" fill="white"/>
<path d="M12.5059 2.8125C12.6291 2.8125 12.7501 2.76234 12.8373 2.67516C12.9244 2.58797 12.9746 2.46703 12.9746 2.34375C12.9746 2.22047 12.9245 2.09953 12.8373 2.01234C12.7501 1.92516 12.6291 1.875 12.5059 1.875C12.3821 1.875 12.2616 1.92516 12.1745 2.01234C12.0868 2.09953 12.0371 2.22047 12.0371 2.34375C12.0371 2.46703 12.0868 2.58797 12.1745 2.67516C12.2616 2.76234 12.3821 2.8125 12.5059 2.8125Z" fill="white"/>
</g>
<defs>
<clipPath id="clip0_902_8502">
<rect width="24" height="24" fill="white" transform="translate(0.5)"/>
</clipPath>
</defs>
</svg>
