<svg xmlns:xlink="http://www.w3.org/1999/xlink" class="modal__toggle-open icon icon-search" aria-hidden="true" focusable="false" role="presentation" xmlns="http://www.w3.org/2000/svg" width="44" height="44" viewBox="0 0 44 44" fill="none">
              <path fill-rule="evenodd" clip-rule="evenodd" d="M25.4811 24.7537C24.8247 25.4321 24.0453 25.9703 23.1876 26.3375C22.3299 26.7046 21.4106 26.8936 20.4823 26.8936C19.5539 26.8936 18.6346 26.7046 17.7769 26.3375C16.9192 25.9703 16.1398 25.4321 15.4834 24.7537C14.8269 24.0752 14.3062 23.2698 13.9509 22.3833C13.5956 21.4969 13.4128 20.5468 13.4128 19.5873C13.4128 18.6279 13.5956 17.6778 13.9509 16.7914C14.3062 15.9049 14.8269 15.0995 15.4834 14.421C16.8091 13.0508 18.6073 12.2811 20.4823 12.2811C22.3572 12.2811 24.1554 13.0508 25.4811 14.421C26.8069 15.7912 27.5517 17.6496 27.5517 19.5873C27.5517 21.5251 26.8069 23.3835 25.4811 24.7537ZM25.7989 26.1684C24.1548 27.5915 22.0408 28.3004 19.9014 28.1461C17.762 27.9918 15.7638 26.9863 14.3269 25.341C12.8899 23.6956 12.1261 21.5386 12.1961 19.3234C12.266 17.1081 13.1642 15.0072 14.7019 13.4622C16.2395 11.9171 18.2969 11.0484 20.4415 11.0385C22.586 11.0287 24.6508 11.8785 26.2017 13.4093C27.7526 14.9401 28.6689 17.0328 28.7579 19.2473C28.8468 21.4618 28.1017 23.6257 26.6789 25.2842L33.2789 32.1052C33.3425 32.1623 33.3939 32.2324 33.43 32.311C33.4661 32.3896 33.4862 32.4751 33.4888 32.5621C33.4914 32.6491 33.4767 32.7357 33.4454 32.8165C33.4141 32.8973 33.367 32.9705 33.307 33.0316C33.2471 33.0927 33.1755 33.1404 33.0969 33.1716C33.0183 33.2027 32.9343 33.2168 32.8502 33.2128C32.766 33.2089 32.6836 33.187 32.6081 33.1485C32.5325 33.1101 32.4655 33.0559 32.4111 32.9895L25.7989 26.1684Z" fill="#C6C6C6"></path>
            </svg>