<svg width="25" height="24" viewBox="0 0 25 24" fill="none" xmlns="http://www.w3.org/2000/svg">
<g clip-path="url(#clip0_902_8514)">
<path fill-rule="evenodd" clip-rule="evenodd" d="M16.1943 2.72969L24.2568 7.15681C24.4068 7.23921 24.5 7.39668 24.5 7.5677V14.3144C24.5 14.3158 24.5 14.3173 24.5 14.3187C24.5 14.3201 24.5 14.3216 24.5 14.323V16.4221C24.5 16.5932 24.4068 16.7506 24.2568 16.833L16.1943 21.2601C16.124 21.2988 16.0464 21.318 15.9687 21.318C15.8911 21.318 15.8135 21.2988 15.7432 21.2601L7.68066 16.833C7.5307 16.7506 7.43749 16.5932 7.43749 16.4221V15.4636H1.19727C0.938354 15.4636 0.728516 15.2537 0.728516 14.9948C0.728516 14.7361 0.938354 14.5261 1.19727 14.5261H7.43749V12.0886V11.1511V9.46358H2.02929C1.77038 9.46358 1.56054 9.25374 1.56054 8.99483C1.56054 8.7361 1.77038 8.52608 2.02929 8.52608H7.43749V7.5677C7.43749 7.39668 7.5307 7.23921 7.68066 7.15681L12.5247 4.49684C12.5789 4.4485 12.6428 4.41353 12.7113 4.39449L15.7432 2.72969C15.8836 2.6526 16.0539 2.6526 16.1943 2.72969ZM23.5625 14.3187C23.5625 14.3173 23.5625 14.3158 23.5625 14.3144V8.36L21.3685 9.56465V12.0518C21.3685 12.2228 21.2755 12.3801 21.1259 12.4625L19.3981 13.4133C19.3276 13.4522 19.2498 13.4714 19.1722 13.4714C19.0896 13.4714 19.007 13.4496 18.9336 13.4062C18.7909 13.322 18.7034 13.1685 18.7034 13.0026V11.028L16.4375 12.2722V20.0571L23.5625 16.1447V14.323C23.5625 14.3216 23.5625 14.3201 23.5625 14.3187ZM8.37499 16.1447L15.5 20.0571V12.2722L8.37499 8.36V16.1447ZM8.88018 7.5677L15.9687 11.4602L18.1968 10.2368L11.108 6.34438L8.88018 7.5677ZM12.082 5.80952L19.1707 9.70198L19.939 9.28011L12.8505 5.38765L12.082 5.80952ZM19.6409 12.2096L20.431 11.7747V10.0794L19.6409 10.5133V12.2096ZM13.8244 4.8528L20.913 8.74525L23.0573 7.5677L15.9687 3.67543L13.8244 4.8528Z" fill="white"/>
<path d="M24.0312 11.9795C23.908 11.9795 23.787 12.0291 23.6998 12.1168C23.6127 12.204 23.5625 12.3245 23.5625 12.4482C23.5625 12.5715 23.6127 12.6925 23.6998 12.7797C23.787 12.8668 23.908 12.917 24.0312 12.917C24.1545 12.917 24.2755 12.8668 24.3627 12.7797C24.4498 12.6925 24.5 12.5715 24.5 12.4482C24.5 12.3245 24.4498 12.204 24.3627 12.1168C24.2755 12.0291 24.1545 11.9795 24.0312 11.9795Z" fill="white"/>
<path d="M1.64056 14.5264H0.96875C0.709839 14.5264 0.5 14.7364 0.5 14.9951C0.5 15.254 0.709839 15.4639 0.96875 15.4639H1.64056C1.89948 15.4639 2.10931 15.254 2.10931 14.9951C2.10931 14.7364 1.89948 14.5264 1.64056 14.5264Z" fill="white"/>
</g>
<defs>
<clipPath id="clip0_902_8514">
<rect width="24" height="24" fill="white" transform="translate(0.5)"/>
</clipPath>
</defs>
</svg>
