<svg xmlns:xlink="http://www.w3.org/1999/xlink" aria-hidden="true" focusable="false" role="presentation" class="icon icon-account" xmlns="http://www.w3.org/2000/svg" width="44" height="44" viewBox="0 0 44 44" fill="none">
  <path fill-rule="evenodd" clip-rule="evenodd" d="M19.1176 15.3333C19.1176 14.2725 19.5267 13.2551 20.2548 12.5049C20.9828 11.7548 21.9703 11.3333 23 11.3333C24.0297 11.3333 25.0172 11.7548 25.7452 12.5049C26.4733 13.2551 26.8824 14.2725 26.8824 15.3333C26.8824 16.3942 26.4733 17.4116 25.7452 18.1618C25.0172 18.9119 24.0297 19.3333 23 19.3333C21.9703 19.3333 20.9828 18.9119 20.2548 18.1618C19.5267 17.4116 19.1176 16.3942 19.1176 15.3333ZM23 10C21.6271 10 20.3105 10.5619 19.3397 11.5621C18.3689 12.5623 17.8235 13.9188 17.8235 15.3333C17.8235 16.7478 18.3689 18.1044 19.3397 19.1046C20.3105 20.1048 21.6271 20.6667 23 20.6667C24.3729 20.6667 25.6895 20.1048 26.6603 19.1046C27.6311 18.1044 28.1765 16.7478 28.1765 15.3333C28.1765 13.9188 27.6311 12.5623 26.6603 11.5621C25.6895 10.5619 24.3729 10 23 10ZM30.2212 26.2C31.6706 27.2933 32.5894 29.1867 32.6929 32.6667H13.3071C13.4106 29.2 14.3294 27.2933 15.7659 26.2C17.3835 25 19.7647 24.6667 23 24.6667C26.2353 24.6667 28.6294 25.0133 30.2212 26.2ZM23 23.3333C19.7647 23.3333 16.9824 23.6533 15.0153 25.1333C12.9965 26.64 12 29.24 12 33.3333V34H34V33.3333C34 29.24 33.0035 26.64 30.9847 25.1333C29.0176 23.6667 26.2353 23.3333 23 23.3333Z" fill="#C6C6C6"></path>
</svg>